# xmcd CD database file
#
# Track frame offsets:
#	150
#	20762
#	37841
#	55043
#	72562
#	89045
#	105474
#	121858
#	141307
#	160312
#
# Disc length: 2367 seconds
#
# Revision: 1
# Processed by: cddbd v1.5.1PL0 Copyright (c) Steve Scherf et al.
# Submitted via: CDex 1.51
#
DISCID=88093d0a
DTITLE=Tom Vek - We Have Sound
DYEAR=2005
DGENRE=Alternative Rock
TTITLE0=C-C (You Set The Fire In Me)
TTITLE1=I Ain't Saying My Goodbyes
TTITLE2=If You Want
TTITLE3=A Little Word In Your Ear
TTITLE4=If I Had Changed My Hand
TTITLE5=The Lower The Sun
TTITLE6=Cover
TTITLE7=Nothing But Green Lights
TTITLE8=On The Road
TTITLE9=That Can Be Arranged
EXTD=YEAR: 2005
EXTT0=
EXTT1=
EXTT2=
EXTT3=
EXTT4=
EXTT5=
EXTT6=
EXTT7=
EXTT8=
EXTT9=
PLAYORDER=
